<svg width="24" height="24" viewBox="0 0 24 24" fill="none" xmlns="http://www.w3.org/2000/svg">
<path opacity="0.2" d="M16.19 2H7.81C4.17 2 2 4.17 2 7.81V16.18C2 19.83 4.17 22 7.81 22H16.18C19.82 22 21.99 19.83 21.99 16.19V7.81C22 4.17 19.83 2 16.19 2Z" fill="#5030E5"/>
<path d="M15.75 11H12.5V7.75C12.5 7.34 12.16 7 11.75 7C11.34 7 11 7.34 11 7.75V11H7.75C7.34 11 7 11.34 7 11.75C7 12.16 7.34 12.5 7.75 12.5H11V15.75C11 16.16 11.34 16.5 11.75 16.5C12.16 16.5 12.5 16.16 12.5 15.75V12.5H15.75C16.16 12.5 16.5 12.16 16.5 11.75C16.5 11.34 16.16 11 15.75 11Z" fill="#5030E5"/>
</svg>
