<svg width="101" height="15" viewBox="0 0 101 15" fill="none" xmlns="http://www.w3.org/2000/svg">
<path d="M0.616477 2.14062V0.818182H8.49645V2.14062H5.3196V11H3.78835V2.14062H0.616477ZM11.6049 6.46591V11H10.1184V0.818182H11.585V4.60653H11.6795C11.8585 4.19555 12.1319 3.86908 12.4998 3.62713C12.8677 3.38518 13.3483 3.2642 13.9416 3.2642C14.4653 3.2642 14.9226 3.37192 15.3137 3.58736C15.7082 3.80279 16.0131 4.12429 16.2285 4.55185C16.4473 4.97609 16.5566 5.50639 16.5566 6.14276V11H15.0701V6.32173C15.0701 5.7616 14.926 5.32741 14.6376 5.01918C14.3493 4.70762 13.9482 4.55185 13.4345 4.55185C13.0832 4.55185 12.7683 4.62642 12.4899 4.77557C12.2148 4.92472 11.9977 5.14347 11.8386 5.43182C11.6828 5.71686 11.6049 6.06155 11.6049 6.46591ZM21.7569 11.1541C21.041 11.1541 20.4163 10.9901 19.8826 10.6619C19.349 10.3338 18.9347 9.87476 18.6397 9.2848C18.3448 8.69484 18.1973 8.00544 18.1973 7.21662C18.1973 6.42448 18.3448 5.73177 18.6397 5.13849C18.9347 4.54522 19.349 4.08452 19.8826 3.75639C20.4163 3.42827 21.041 3.2642 21.7569 3.2642C22.4728 3.2642 23.0976 3.42827 23.6312 3.75639C24.1648 4.08452 24.5791 4.54522 24.8741 5.13849C25.1691 5.73177 25.3166 6.42448 25.3166 7.21662C25.3166 8.00544 25.1691 8.69484 24.8741 9.2848C24.5791 9.87476 24.1648 10.3338 23.6312 10.6619C23.0976 10.9901 22.4728 11.1541 21.7569 11.1541ZM21.7619 9.90625C22.2259 9.90625 22.6104 9.78362 22.9153 9.53835C23.2202 9.29309 23.4456 8.96662 23.5914 8.55895C23.7406 8.15128 23.8152 7.70218 23.8152 7.21165C23.8152 6.72443 23.7406 6.27699 23.5914 5.86932C23.4456 5.45833 23.2202 5.12855 22.9153 4.87997C22.6104 4.63139 22.2259 4.5071 21.7619 4.5071C21.2946 4.5071 20.9068 4.63139 20.5985 4.87997C20.2936 5.12855 20.0666 5.45833 19.9174 5.86932C19.7716 6.27699 19.6987 6.72443 19.6987 7.21165C19.6987 7.70218 19.7716 8.15128 19.9174 8.55895C20.0666 8.96662 20.2936 9.29309 20.5985 9.53835C20.9068 9.78362 21.2946 9.90625 21.7619 9.90625ZM31.8132 7.8331V3.36364H33.3047V11H31.843V9.67756H31.7635C31.5878 10.0852 31.3061 10.425 30.9183 10.6967C30.5339 10.9652 30.0549 11.0994 29.4815 11.0994C28.991 11.0994 28.5568 10.9917 28.179 10.7763C27.8045 10.5575 27.5095 10.2344 27.294 9.80682C27.0819 9.37926 26.9759 8.85062 26.9759 8.22088V3.36364H28.4624V8.0419C28.4624 8.56226 28.6065 8.97656 28.8949 9.2848C29.1832 9.59304 29.5578 9.74716 30.0185 9.74716C30.2969 9.74716 30.5736 9.67756 30.8487 9.53835C31.1271 9.39915 31.3575 9.18868 31.5398 8.90696C31.7254 8.62524 31.8165 8.26728 31.8132 7.8331ZM38.5037 14.0227C37.8972 14.0227 37.3752 13.9432 36.9377 13.7841C36.5035 13.625 36.1489 13.4145 35.8738 13.1527C35.5987 12.8909 35.3932 12.6042 35.2573 12.2926L36.535 11.7656C36.6245 11.9115 36.7438 12.0656 36.8929 12.228C37.0454 12.3937 37.2509 12.5346 37.5094 12.6506C37.7712 12.7666 38.1077 12.8246 38.5186 12.8246C39.0821 12.8246 39.5478 12.687 39.9157 12.4119C40.2836 12.1402 40.4675 11.706 40.4675 11.1094V9.60795H40.373C40.2836 9.77036 40.1543 9.95099 39.9853 10.1499C39.8195 10.3487 39.5909 10.5211 39.2992 10.6669C39.0075 10.8127 38.628 10.8857 38.1607 10.8857C37.5575 10.8857 37.0139 10.7448 36.53 10.4631C36.0494 10.178 35.6683 9.75876 35.3865 9.20526C35.1081 8.64844 34.9689 7.96401 34.9689 7.15199C34.9689 6.33996 35.1065 5.64394 35.3816 5.06392C35.66 4.4839 36.0411 4.03977 36.525 3.73153C37.0089 3.41998 37.5575 3.2642 38.1706 3.2642C38.6446 3.2642 39.0274 3.34375 39.3191 3.50284C39.6107 3.65862 39.8378 3.84091 40.0002 4.04972C40.1659 4.25852 40.2935 4.44247 40.383 4.60156H40.4924V3.36364H41.949V11.169C41.949 11.8253 41.7966 12.3639 41.4917 12.7848C41.1867 13.2057 40.7741 13.5173 40.2537 13.7195C39.7367 13.9216 39.1534 14.0227 38.5037 14.0227ZM38.4888 9.6527C38.9164 9.6527 39.2776 9.55327 39.5726 9.3544C39.8709 9.15223 40.0963 8.86387 40.2488 8.48935C40.4045 8.11151 40.4824 7.65909 40.4824 7.1321C40.4824 6.61837 40.4062 6.16596 40.2537 5.77486C40.1013 5.38376 39.8775 5.07884 39.5826 4.86009C39.2876 4.63802 38.923 4.52699 38.4888 4.52699C38.0414 4.52699 37.6685 4.64299 37.3702 4.875C37.0719 5.10369 36.8465 5.41525 36.6941 5.80966C36.5449 6.20407 36.4703 6.64489 36.4703 7.1321C36.4703 7.63258 36.5466 8.07173 36.699 8.44957C36.8515 8.82741 37.0769 9.1224 37.3752 9.33452C37.6768 9.54664 38.048 9.6527 38.4888 9.6527ZM45.4292 6.46591V11H43.9426V0.818182H45.4093V4.60653H45.5037C45.6827 4.19555 45.9561 3.86908 46.324 3.62713C46.6919 3.38518 47.1725 3.2642 47.7658 3.2642C48.2895 3.2642 48.7469 3.37192 49.138 3.58736C49.5324 3.80279 49.8373 4.12429 50.0527 4.55185C50.2715 4.97609 50.3809 5.50639 50.3809 6.14276V11H48.8944V6.32173C48.8944 5.7616 48.7502 5.32741 48.4618 5.01918C48.1735 4.70762 47.7724 4.55185 47.2587 4.55185C46.9074 4.55185 46.5925 4.62642 46.3141 4.77557C46.039 4.92472 45.8219 5.14347 45.6628 5.43182C45.507 5.71686 45.4292 6.06155 45.4292 6.46591ZM55.9292 3.36364V4.55682H51.758V3.36364H55.9292ZM52.8766 1.53409H54.3631V8.75781C54.3631 9.04616 54.4062 9.26326 54.4924 9.40909C54.5785 9.55161 54.6896 9.64938 54.8255 9.70241C54.9647 9.75213 55.1155 9.77699 55.2779 9.77699C55.3972 9.77699 55.5016 9.7687 55.5911 9.75213C55.6806 9.73556 55.7502 9.7223 55.7999 9.71236L56.0684 10.9403C55.9822 10.9735 55.8596 11.0066 55.7005 11.0398C55.5414 11.0762 55.3425 11.0961 55.1039 11.0994C54.7128 11.1061 54.3482 11.0365 54.0101 10.8906C53.6721 10.7448 53.3986 10.5194 53.1898 10.2145C52.981 9.90956 52.8766 9.52675 52.8766 9.06605V1.53409ZM63.1728 5.22798L61.8255 5.46662C61.7691 5.29427 61.6796 5.13021 61.557 4.97443C61.4377 4.81865 61.2753 4.69105 61.0698 4.59162C60.8643 4.49219 60.6074 4.44247 60.2992 4.44247C59.8783 4.44247 59.5269 4.53693 59.2452 4.72585C58.9635 4.91146 58.8226 5.15175 58.8226 5.44673C58.8226 5.70194 58.9171 5.90743 59.106 6.06321C59.2949 6.21899 59.5998 6.34659 60.0208 6.44602L61.2338 6.72443C61.9365 6.88684 62.4602 7.13707 62.8049 7.47514C63.1496 7.81321 63.3219 8.25237 63.3219 8.79261C63.3219 9.25 63.1893 9.65767 62.9242 10.0156C62.6623 10.3703 62.2961 10.6487 61.8255 10.8509C61.3581 11.053 60.8162 11.1541 60.1998 11.1541C59.3446 11.1541 58.647 10.9718 58.1067 10.6072C57.5665 10.2393 57.235 9.71733 57.1124 9.04119L58.5492 8.82244C58.6387 9.19697 58.8226 9.48035 59.101 9.67259C59.3794 9.86151 59.7424 9.95597 60.1898 9.95597C60.677 9.95597 61.0665 9.85488 61.3581 9.6527C61.6498 9.44721 61.7956 9.19697 61.7956 8.90199C61.7956 8.66335 61.7061 8.46283 61.5272 8.30043C61.3515 8.13802 61.0814 8.01539 60.7168 7.93253L59.4242 7.64915C58.7116 7.48674 58.1846 7.22822 57.8432 6.87358C57.5051 6.51894 57.3361 6.06984 57.3361 5.52628C57.3361 5.07552 57.4621 4.68111 57.714 4.34304C57.9658 4.00497 58.3139 3.74148 58.758 3.55256C59.2021 3.36032 59.7109 3.2642 60.2843 3.2642C61.1096 3.2642 61.7592 3.44318 62.2331 3.80114C62.7071 4.15578 63.0203 4.63139 63.1728 5.22798ZM68.2786 2.14062V0.818182H76.1586V2.14062H72.9817V11H71.4505V2.14062H68.2786ZM77.7805 11V3.36364H79.267V11H77.7805ZM78.5312 2.18537C78.2727 2.18537 78.0507 2.09919 77.8651 1.92685C77.6828 1.75118 77.5916 1.54238 77.5916 1.30043C77.5916 1.05516 77.6828 0.846354 77.8651 0.674005C78.0507 0.498342 78.2727 0.410511 78.5312 0.410511C78.7898 0.410511 79.0102 0.498342 79.1925 0.674005C79.3781 0.846354 79.4709 1.05516 79.4709 1.30043C79.4709 1.54238 79.3781 1.75118 79.1925 1.92685C79.0102 2.09919 78.7898 2.18537 78.5312 2.18537ZM81.2669 11V3.36364H82.6937V4.60653H82.7882C82.9473 4.18561 83.2074 3.85748 83.5687 3.62216C83.93 3.38352 84.3625 3.2642 84.8663 3.2642C85.3767 3.2642 85.8043 3.38352 86.149 3.62216C86.497 3.8608 86.7538 4.18892 86.9196 4.60653H86.9991C87.1814 4.19886 87.4714 3.87405 87.8691 3.6321C88.2669 3.38684 88.7408 3.2642 89.291 3.2642C89.9837 3.2642 90.5488 3.4813 90.9863 3.91548C91.4271 4.34967 91.6475 5.00426 91.6475 5.87926V11H90.161V6.01847C90.161 5.50142 90.0202 5.12689 89.7385 4.89489C89.4567 4.66288 89.1203 4.54688 88.7292 4.54688C88.2453 4.54688 87.8691 4.69602 87.6007 4.99432C87.3322 5.2893 87.198 5.6688 87.198 6.13281V11H85.7164V5.92401C85.7164 5.50971 85.5872 5.17661 85.3287 4.92472C85.0701 4.67282 84.7337 4.54688 84.3194 4.54688C84.0377 4.54688 83.7775 4.62145 83.5389 4.7706C83.3036 4.91643 83.113 5.12026 82.9672 5.3821C82.8246 5.64394 82.7534 5.94721 82.7534 6.2919V11H81.2669ZM96.9311 11.1541C96.1787 11.1541 95.5308 10.9934 94.9872 10.6719C94.447 10.3471 94.0294 9.89134 93.7344 9.30469C93.4427 8.71473 93.2969 8.02367 93.2969 7.23153C93.2969 6.44934 93.4427 5.75994 93.7344 5.16335C94.0294 4.56676 94.4403 4.10109 94.9673 3.76633C95.4976 3.43158 96.1174 3.2642 96.8267 3.2642C97.2576 3.2642 97.6752 3.33546 98.0795 3.47798C98.4839 3.6205 98.8468 3.84422 99.1683 4.14915C99.4898 4.45407 99.7434 4.85014 99.929 5.33736C100.115 5.82126 100.207 6.40956 100.207 7.10227V7.62926H94.1371V6.51562H98.7507C98.7507 6.12453 98.6712 5.77817 98.5121 5.47656C98.353 5.17164 98.1293 4.93134 97.8409 4.75568C97.5559 4.58002 97.2211 4.49219 96.8366 4.49219C96.419 4.49219 96.0545 4.59493 95.7429 4.80043C95.4347 5.0026 95.196 5.26776 95.027 5.59588C94.8613 5.92069 94.7784 6.27367 94.7784 6.65483V7.52486C94.7784 8.03527 94.8679 8.46946 95.0469 8.82741C95.2292 9.18537 95.4827 9.45881 95.8075 9.64773C96.1323 9.83333 96.5118 9.92614 96.946 9.92614C97.2277 9.92614 97.4846 9.88636 97.7166 9.80682C97.9486 9.72396 98.1491 9.60133 98.3182 9.43892C98.4872 9.27652 98.6165 9.07599 98.706 8.83736L100.113 9.09091C100 9.50521 99.7981 9.86813 99.5064 10.1797C99.218 10.4879 98.8551 10.7282 98.4176 10.9006C97.9834 11.0696 97.4879 11.1541 96.9311 11.1541Z" fill="black"/>
</svg>
